<svg xmlns="http://www.w3.org/2000/svg" width="1100.9277" height="1012.7552" viewBox="0 0 1100.9278 1012.7553" style="overflow:visible" xml:space="preserve">
  <switch transform="translate(0 -.03120728)">
    <g>
      <ellipse transform="rotate(14.442 573.7906749 218.83526332)" style="opacity:.2" cx="573.75702" cy="218.819" rx="152.85201" ry="203.29201"/>
      <path style="opacity:.2" d="M245.637 851.181c-77.885-80.476-179.205-221.598-227.38-472.098 0 0 220.07-255.312 672.499-140.666 57.809 11.562 126.05 43.934 144.521 53.955 389.577 211.333 190.766 541.465 190.766 541.465s-165.718 298.675-612.35 124.299c-20.717-8.272-114.167-51.275-168.056-106.955z"/>
      <ellipse transform="rotate(14.442 555.52800301 200.57544148)" style="fill:#7a4c50" cx="555.49902" cy="200.562" rx="152.853" ry="203.291"/>
      <path style="fill:#896064" d="M407.477 162.438c-28.002 108.726 15.568 213.935 97.32 234.99L587.137.5c-76.082-6.578-153.823 61.621-179.66 161.938Z"/>
      <path style="fill:#644c50" d="M227.379 832.922C149.495 752.448 48.174 611.326 0 360.824c0 0 220.07-255.31 672.5-140.667 57.808 11.564 126.048 43.936 144.521 53.957 389.578 211.333 190.766 541.465 190.766 541.465s-165.718 298.675-612.352 124.3c-20.718-8.275-114.167-51.275-168.056-106.957z"/>
      <path style="opacity:.2" d="M95.035 621.922c19.604 41.917 40.536 78.336 61.636 109.979 136.893-48.999 130.91-145.291 130.91-145.291-59.258 63.298-145.796 49.411-192.546 35.312z"/>
      <path style="fill:#745e62" d="m1029.047 764.555 1.442 2.199c38.23-99.708 84.604-330.945-213.469-492.64-18.473-10.021-86.713-42.392-144.521-53.957C220.07 105.514 0 360.824 0 360.824s810.093 143.135 1029.047 403.731z"/>
      <circle style="opacity:.3" cx="496.32199" cy="453.01901" r="122.36"/>
      <path style="opacity:.2" d="M13.953 365.011c5.495 28.561 11.707 55.63 18.466 81.419 43.722-.983 81.342-19.007 99.598-52.395 18.328-33.519 13.088-75.108-9.904-112.558-72.358 42.027-108.16 83.534-108.16 83.534z"/>
      <path style="fill:#a44a53" d="M0 360.824c5.493 28.563 11.705 55.631 18.466 81.421 43.72-.983 81.34-19.007 99.598-52.395 18.328-33.519 13.088-75.108-9.904-112.558C35.802 319.318 0 360.824 0 360.824Z"/>
      <circle style="fill:#fff" cx="486.552" cy="444.647" r="122.36"/>
      <circle cx="485.58899" cy="445.60999" r="79.003998"/>
      <circle style="fill:#fff" cx="496.18799" cy="396.47501" r="31.792999"/>
      <path style="fill:#ad5c65" d="M81.08 617.735c19.605 41.918 40.536 78.336 61.638 109.98 136.893-48.998 130.907-145.292 130.907-145.292-59.257 63.297-145.795 49.412-192.545 35.312Z"/>
      <path style="fill:#ba777e" d="M273.625 582.423C214.368 645.72 127.83 631.835 81.08 617.735c10.819 23.135 22.051 44.535 33.485 64.44 1.057-.25 1.686-.403 1.686-.403s91.733 10.384 155.775-91.733l1.632-6.631c-.012-.639-.033-.985-.033-.985z"/>
      <path style="fill:#ad5c65" d="M1.781 358.849c23.878 1.831 70.927 8.467 115.375 32.513.294-.51.624-.995.908-1.512 18.328-33.519 13.088-75.108-9.904-112.558C45.09 313.923 9.804 350.15 1.781 358.849Z"/>
      <path style="opacity:.2" d="M1026.434 442.322c-80.976 72.28-194.564 77.177-253.696 10.929-59.134-66.249-41.427-178.549 39.553-250.833 80.976-72.282 194.558-77.175 253.692-10.929 59.133 66.252 41.424 178.549-39.549 250.833z"/>
      <path style="fill:#c45f65" d="M1008.177 424.064c-80.979 72.28-194.565 77.177-253.697 10.929-59.134-66.248-41.428-178.549 39.551-250.833 80.976-72.282 194.559-77.177 253.695-10.93 59.132 66.252 41.423 178.551-39.549 250.834z"/>
      <path style="fill:#c9757b" d="M794.031 184.16c-80.979 72.284-98.685 184.585-39.551 250.833 4.866 5.45 10.132 10.37 15.687 14.861l.997-.87 254.198-293.861.616-1.369c-62.369-44.787-160.007-33.809-231.947 30.406Z"/>
      <path style="opacity:.2" d="M968.086 416.787c-55.382 49.427-133.103 52.722-173.601 7.351-40.499-45.373-28.439-122.224 26.937-171.652 55.376-49.43 133.093-52.722 173.594-7.351 40.499 45.374 28.438 122.222-26.93 171.652z"/>
      <path style="fill:#a34d54" d="M957.064 411.276c-55.382 49.428-133.104 52.722-173.602 7.351-40.498-45.371-28.438-122.223 26.937-171.652 55.376-49.43 133.092-52.722 173.594-7.349 40.499 45.372 28.438 122.22-26.929 171.65z"/>
      <path style="fill:#b85d64" d="M810.399 246.975c-55.375 49.43-67.435 126.281-26.937 171.652 2.375 2.66 4.888 5.136 7.505 7.464L965.78 223.999c-42.781-27.997-107.443-19.814-155.381 22.976Z"/>
      <path style="opacity:.2" d="M746.558 243.241s-65.794 101.923 7.923 191.752c-.001 0-87.899-78.454-7.923-191.752z"/>
      <path style="opacity:.15;fill:#fff" d="M158.94 261.187s164.867-92.947 432.636-49.793c0 0-151.588-7.743-234.574 15.491-82.988 23.236-198.062 34.302-198.062 34.302z"/>
      <path style="opacity:.2;fill:#fff" d="M757.553 236.842s65.281-92.945 158.228-101.798c66.391-8.851 98.477 19.917 98.477 19.917s-109.541-60.856-256.705 81.881zM416.752 177.09S451.054 15.545 584.938 6.692c0 0-96.263 9.957-168.186 170.398zM784.11 407.237s-46.474-95.157 42.046-161.547c0 0-11.064 39.833-28.768 58.644-17.705 18.811-26.556 67.496-13.278 102.903zM104.722 293.267s7.745 15.493 7.745 27.664c0 0-70.814 16.596-100.69 36.514-.001-.001 59.748-53.112 92.945-64.178zM94.877 629.797s73.956 24.704 133.329-9.242c.001.001-84.484 63.368-133.329 9.242z"/>
      <path style="opacity:.15" d="M692.428 225.791s27.932-97.758-24.124-165.048c0 0 13.965 45.705 10.156 74.906-3.808 29.201 13.968 90.142 13.968 90.142zM809.233 428.93s110.453 62.211 189.171-95.222c0 0-25.392 22.851-41.896 44.436-16.503 21.585-67.291 66.023-147.275 50.786zM1066.963 219.447s38.093 129.501-92.681 218.374c0 0 60.94-58.401 77.447-119.343 10.706-39.52 2.536-90.144 15.234-99.031zM32.231 435.284s17.774-3.809 31.741-10.156c0 0-33.832-4.063-54.593-50.784-7.007-15.771 22.852 60.94 22.852 60.94zM133.811 689.76s50.109 0 98.491-47.519c0 0-24.298 53.912-82.151 54.957-3.855.071-16.34-7.438-16.34-7.438zM333.686 888.697s223.656 119.586 411.71 77.595c188.053-41.995 226.396-138.758 226.396-138.758S855.854 978.157 666.889 958.989c-162.785-16.513-257.434-78.51-333.203-70.292z"/>
      <path style="opacity:.2" d="M759.661 341.053s9.459-86.808 94.042-121.865c0 0-89.032 22.258-94.042 121.865z"/>
    </g>
  </switch>
</svg>
